<svg width="355" height="56" viewBox="0 0 355 56" fill="none" xmlns="http://www.w3.org/2000/svg">
<path d="M72.5467 17.647C74.0307 14.785 76.0977 12.612 78.8537 11.022C81.6097 9.48497 84.8427 8.68997 88.5527 8.68997C91.4147 8.68997 94.0117 9.27297 96.3437 10.386C98.6227 11.552 100.478 13.142 101.909 15.156C103.287 17.223 104.135 19.608 104.453 22.258H96.5027C96.0257 20.138 95.0717 18.495 93.5877 17.276C92.1037 16.057 90.3017 15.421 88.1287 15.421C85.1607 15.421 82.7757 16.534 81.0797 18.76C79.3307 20.986 78.4827 23.954 78.4827 27.558C78.4827 31.162 79.3307 34.13 81.0797 36.356C82.7757 38.582 85.1607 39.695 88.1287 39.695C90.3017 39.695 92.1037 39.112 93.5877 37.893C95.0717 36.674 96.0257 34.978 96.5027 32.858H104.453C104.135 35.561 103.287 37.946 101.909 39.96C100.478 42.027 98.6227 43.617 96.3437 44.73C94.0117 45.896 91.4147 46.426 88.5527 46.426C84.8427 46.426 81.6097 45.684 78.8537 44.094C76.0977 42.557 74.0307 40.384 72.5467 37.522C71.0627 34.66 70.3737 31.374 70.3737 27.558C70.3737 23.795 71.0627 20.509 72.5467 17.647ZM108.065 25.173C109.231 23.053 110.821 21.463 112.888 20.297C114.955 19.131 117.34 18.548 120.096 18.548C122.852 18.548 125.237 19.131 127.357 20.191C129.477 21.251 131.12 22.788 132.286 24.749C133.452 26.71 134.088 28.989 134.141 31.639C134.141 32.593 134.035 33.441 133.929 34.183H114.16V34.395C114.319 36.409 114.955 37.946 116.068 39.059C117.128 40.225 118.665 40.755 120.573 40.755C122.057 40.755 123.329 40.437 124.336 39.801C125.343 39.165 126.032 38.158 126.35 36.886H133.717C133.399 38.688 132.71 40.331 131.65 41.762C130.537 43.246 129.106 44.359 127.304 45.207C125.502 46.055 123.435 46.426 121.103 46.426C118.029 46.426 115.432 45.896 113.206 44.73C110.98 43.617 109.284 42.027 108.118 39.907C106.952 37.787 106.369 35.349 106.369 32.54C106.369 29.731 106.899 27.293 108.065 25.173ZM126.668 29.307C126.403 27.664 125.714 26.392 124.601 25.491C123.488 24.59 122.11 24.113 120.414 24.113C118.771 24.113 117.393 24.59 116.28 25.544C115.167 26.498 114.531 27.717 114.319 29.307H126.668ZM153.753 18.866V25.65H150.785C148.665 25.65 147.075 26.286 146.121 27.558C145.114 28.83 144.637 30.579 144.637 32.752V46.108H137.164V18.866H143.948L144.637 22.947C145.432 21.622 146.439 20.615 147.658 19.926C148.824 19.237 150.467 18.866 152.481 18.866H153.753ZM156.031 11.234H163.504V18.866H169.705V25.173H163.504V37.098C163.504 38.052 163.663 38.741 164.087 39.165C164.511 39.589 165.2 39.801 166.154 39.801H170.023V46.108H163.822C158.628 46.108 156.031 43.511 156.031 38.317V11.234ZM197.755 18.866V46.108H191.13L190.441 42.822C189.487 43.988 188.374 44.836 187.102 45.472C185.83 46.108 184.24 46.426 182.438 46.426C179.258 46.426 176.661 45.472 174.647 43.511C172.633 41.55 171.626 38.264 171.626 33.653V18.866H179.099V32.752C179.099 35.243 179.523 37.098 180.371 38.37C181.219 39.642 182.597 40.225 184.399 40.225C186.254 40.225 187.685 39.536 188.745 38.158C189.752 36.78 190.282 34.819 190.282 32.275V18.866H197.755ZM207.986 37.045C208.092 38.264 208.675 39.218 209.735 39.96C210.795 40.702 212.12 41.073 213.816 41.073C215.406 41.073 216.625 40.861 217.579 40.331C218.48 39.801 218.957 39.059 218.957 38.105C218.957 37.416 218.745 36.886 218.321 36.515C217.897 36.197 217.261 35.932 216.519 35.773C215.724 35.614 214.452 35.402 212.703 35.19C210.265 34.872 208.304 34.501 206.714 33.971C205.124 33.494 203.852 32.699 202.898 31.639C201.944 30.579 201.467 29.201 201.467 27.399C201.467 25.65 201.944 24.113 202.898 22.735C203.852 21.357 205.23 20.297 207.032 19.555C208.781 18.813 210.795 18.442 213.127 18.442C216.837 18.495 219.805 19.29 222.084 20.827C224.363 22.417 225.582 24.537 225.794 27.293H218.692C218.586 26.286 218.003 25.438 217.049 24.802C216.095 24.166 214.823 23.795 213.339 23.795C211.908 23.795 210.742 24.06 209.894 24.59C209.046 25.12 208.622 25.862 208.622 26.71C208.622 27.346 208.834 27.823 209.311 28.141C209.735 28.459 210.371 28.724 211.113 28.83C211.855 28.989 213.074 29.148 214.823 29.307C218.48 29.731 221.289 30.526 223.25 31.692C225.211 32.858 226.218 34.819 226.218 37.575C226.218 39.377 225.688 40.914 224.628 42.239C223.568 43.617 222.137 44.624 220.282 45.366C218.427 46.108 216.307 46.426 213.869 46.426C210.053 46.426 206.979 45.631 204.647 43.935C202.262 42.239 200.99 39.96 200.884 37.045H207.986ZM242.811 17.647C244.295 14.785 246.362 12.612 249.118 11.022C251.874 9.48497 255.107 8.68997 258.817 8.68997C261.679 8.68997 264.276 9.27297 266.608 10.386C268.887 11.552 270.742 13.142 272.173 15.156C273.551 17.223 274.399 19.608 274.717 22.258H266.767C266.29 20.138 265.336 18.495 263.852 17.276C262.368 16.057 260.566 15.421 258.393 15.421C255.425 15.421 253.04 16.534 251.344 18.76C249.595 20.986 248.747 23.954 248.747 27.558C248.747 31.162 249.595 34.13 251.344 36.356C253.04 38.582 255.425 39.695 258.393 39.695C260.566 39.695 262.368 39.112 263.852 37.893C265.336 36.674 266.29 34.978 266.767 32.858H274.717C274.399 35.561 273.551 37.946 272.173 39.96C270.742 42.027 268.887 43.617 266.608 44.73C264.276 45.896 261.679 46.426 258.817 46.426C255.107 46.426 251.874 45.684 249.118 44.094C246.362 42.557 244.295 40.384 242.811 37.522C241.327 34.66 240.638 31.374 240.638 27.558C240.638 23.795 241.327 20.509 242.811 17.647ZM283.417 44.73C281.244 43.564 279.548 41.921 278.382 39.801C277.216 37.681 276.633 35.243 276.633 32.487C276.633 29.731 277.216 27.293 278.382 25.173C279.548 23.053 281.244 21.463 283.417 20.297C285.59 19.131 288.134 18.548 290.996 18.548C293.858 18.548 296.349 19.131 298.522 20.297C300.695 21.463 302.391 23.053 303.557 25.173C304.723 27.293 305.359 29.731 305.359 32.487C305.359 35.296 304.723 37.734 303.557 39.854C302.391 41.974 300.695 43.564 298.522 44.73C296.349 45.896 293.858 46.426 290.996 46.426C288.134 46.426 285.59 45.896 283.417 44.73ZM295.925 38.158C297.144 36.727 297.78 34.819 297.78 32.487C297.78 30.155 297.144 28.3 295.925 26.816C294.706 25.385 293.063 24.643 290.996 24.643C288.929 24.643 287.286 25.385 286.067 26.816C284.848 28.3 284.265 30.155 284.265 32.487C284.265 34.819 284.848 36.727 286.067 38.158C287.286 39.642 288.929 40.331 290.996 40.331C293.063 40.331 294.706 39.642 295.925 38.158ZM325.001 18.866V25.65H322.033C319.913 25.65 318.323 26.286 317.369 27.558C316.362 28.83 315.885 30.579 315.885 32.752V46.108H308.412V18.866H315.196L315.885 22.947C316.68 21.622 317.687 20.615 318.906 19.926C320.072 19.237 321.715 18.866 323.729 18.866H325.001ZM327.035 25.173C328.201 23.053 329.791 21.463 331.858 20.297C333.925 19.131 336.31 18.548 339.066 18.548C341.822 18.548 344.207 19.131 346.327 20.191C348.447 21.251 350.09 22.788 351.256 24.749C352.422 26.71 353.058 28.989 353.111 31.639C353.111 32.593 353.005 33.441 352.899 34.183H333.13V34.395C333.289 36.409 333.925 37.946 335.038 39.059C336.098 40.225 337.635 40.755 339.543 40.755C341.027 40.755 342.299 40.437 343.306 39.801C344.313 39.165 345.002 38.158 345.32 36.886H352.687C352.369 38.688 351.68 40.331 350.62 41.762C349.507 43.246 348.076 44.359 346.274 45.207C344.472 46.055 342.405 46.426 340.073 46.426C336.999 46.426 334.402 45.896 332.176 44.73C329.95 43.617 328.254 42.027 327.088 39.907C325.922 37.787 325.339 35.349 325.339 32.54C325.339 29.731 325.869 27.293 327.035 25.173ZM345.638 29.307C345.373 27.664 344.684 26.392 343.571 25.491C342.458 24.59 341.08 24.113 339.384 24.113C337.741 24.113 336.363 24.59 335.25 25.544C334.137 26.498 333.501 27.717 333.289 29.307H345.638Z" fill="#0E1B50"/>
<path fill-rule="evenodd" clip-rule="evenodd" d="M2.31931 8.18699C0 12.1108 0 17.4068 0 27.9987C0 38.5906 0 43.8866 2.31931 47.8104C3.7493 50.2296 5.76774 52.2481 8.18699 53.6781C12.1108 55.9974 17.4068 55.9974 27.9987 55.9974C36.6512 55.9974 41.7696 55.9974 45.4929 54.7331L39.3502 49.4773C36.2371 46.0806 30.8139 38.3671 31.3617 32.0191C31.5498 29.8389 32.4064 28.4191 33.277 26.9759C34.1768 25.4845 35.0916 23.9681 35.2992 21.562C35.4481 19.837 25.1847 20.6892 12.9742 33.5545C9.49903 37.216 8.25863 40.7987 7.50414 42.9779C6.98389 44.4805 6.69468 45.3158 6.06314 45.0496C5.00143 44.6019 6.13311 40.5542 8.47739 35.6558C11.7431 28.8319 18.6013 23.4216 23.6341 19.4512C26.4752 17.2099 28.7345 15.4275 29.4378 14.1087C31.3867 10.4536 36.7317 5.30485 43.9223 9.92309C46.9492 11.8671 49.1143 18.03 46.7641 22.8331C49.9055 21.4706 54.9386 22.2872 55.7356 23.1206C55.8202 23.1636 55.9042 23.2078 55.9876 23.2533C55.9366 15.7276 55.6219 11.4754 53.6781 8.18699C52.2482 5.76774 50.2297 3.7493 47.8105 2.31931C43.8867 0 38.5907 0 27.9987 0C17.4068 0 12.1108 0 8.18699 2.31931C5.76774 3.7493 3.7493 5.76774 2.31931 8.18699Z" fill="#526BD6"/>
</svg>
